<?xml version="1.0" standalone="no"?>
<!DOCTYPE svg PUBLIC "-//W3C//DTD SVG 20010904//EN"
 "http://www.w3.org/TR/2001/REC-SVG-20010904/DTD/svg10.dtd">
<svg version="1.0" xmlns="http://www.w3.org/2000/svg"
 width="1280.000000pt" height="837.000000pt" viewBox="0 0 1280.000000 837.000000"
 preserveAspectRatio="xMidYMid meet">

<g transform="translate(0.000000,837.000000) scale(0.100000,-0.100000)"
fill="#000000" stroke="none">
<path d="M5686 4675 c-73 -30 -120 -67 -163 -129 -54 -79 -56 -95 -60 -431 -4
-305 -4 -311 17 -338 16 -20 30 -27 54 -27 56 0 66 22 66 143 0 138 -1 137
140 137 99 0 111 2 130 22 27 29 25 64 -5 93 -23 24 -30 25 -138 25 -95 0
-116 3 -121 16 -3 8 -4 60 -2 114 2 81 7 108 28 147 29 58 89 98 168 113 84
15 115 69 70 118 -29 31 -106 29 -184 -3z"/>
<path d="M5987 4682 c-15 -16 -17 -55 -17 -335 0 -295 1 -320 21 -371 44 -118
171 -214 297 -224 51 -4 66 -1 82 13 45 40 10 125 -50 125 -67 0 -137 41 -178
104 l-27 41 -5 318 c-5 301 -6 319 -24 333 -28 20 -80 18 -99 -4z"/>
<path d="M7950 4678 c-19 -21 -20 -34 -20 -319 0 -345 7 -388 83 -482 70 -85
214 -145 300 -123 23 5 47 42 47 72 0 23 -46 64 -72 64 -74 0 -153 51 -189
121 -21 43 -36 192 -25 253 l7 36 98 0 c54 0 112 5 130 11 55 19 68 73 26 114
-23 24 -30 25 -138 25 l-114 0 -7 53 c-3 28 -6 77 -6 108 0 41 -5 60 -18 72
-26 24 -77 21 -102 -5z"/>
<path d="M4883 4440 c-12 -5 -26 -18 -32 -29 -7 -13 -11 -125 -11 -314 0 -283
1 -295 21 -321 26 -33 77 -36 105 -5 17 19 20 43 24 238 3 149 9 223 18 238
28 50 117 69 171 37 53 -32 56 -42 59 -275 3 -199 5 -218 23 -238 26 -28 80
-28 105 0 17 20 19 39 19 243 l0 222 -30 59 c-65 127 -205 182 -341 133 -26
-9 -39 -8 -67 5 -19 10 -37 17 -39 16 -1 0 -13 -4 -25 -9z"/>
<path d="M6660 4435 c-117 -33 -211 -129 -246 -249 -44 -157 33 -323 186 -402
49 -26 65 -29 151 -29 80 0 104 4 147 24 l52 25 28 -27 c35 -33 81 -36 108 -6
17 19 19 39 20 198 1 97 -2 238 -5 313 -5 121 -8 139 -26 153 -27 21 -75 11
-101 -20 l-20 -26 -58 27 c-72 33 -160 40 -236 19z m188 -154 c47 -24 66 -45
91 -101 34 -75 23 -154 -31 -216 -39 -44 -72 -61 -136 -70 -44 -6 -60 -3 -107
21 -72 35 -107 85 -113 161 -8 92 32 165 113 207 42 23 137 22 183 -2z"/>
<path d="M7306 4435 c-46 -16 -99 -65 -122 -113 -11 -25 -15 -53 -12 -98 5
-81 41 -137 112 -173 46 -24 60 -25 224 -28 146 -3 179 -6 194 -20 22 -19 23
-62 4 -89 -13 -17 -31 -19 -191 -24 -160 -5 -178 -7 -191 -24 -24 -34 -18 -83
13 -103 23 -15 51 -18 198 -18 168 0 171 0 221 28 153 85 148 299 -10 373 -47
22 -63 24 -223 24 l-172 0 -20 26 c-25 31 -26 53 -7 80 13 17 31 19 190 24
192 5 200 8 212 67 5 26 1 37 -19 57 -26 26 -27 26 -194 26 -117 -1 -180 -5
-207 -15z"/>
<path d="M9183 4438 c-41 -20 -44 -49 -41 -355 3 -270 4 -292 22 -312 23 -25
77 -28 100 -5 23 22 25 41 28 224 3 145 6 170 24 205 27 53 86 92 154 105 91
17 126 75 74 127 -24 23 -30 25 -82 19 -31 -4 -81 -18 -110 -31 l-54 -25 -28
30 c-29 31 -50 36 -87 18z"/>
<path d="M9852 4440 c-56 -12 -133 -54 -178 -99 -72 -71 -112 -200 -94 -301
42 -232 289 -357 501 -253 82 41 112 72 111 115 -1 37 -31 68 -67 68 -12 0
-42 -13 -66 -30 -104 -71 -212 -61 -288 25 -57 66 -60 65 217 65 240 0 250 1
268 21 42 47 5 193 -72 278 -82 91 -215 136 -332 111z m164 -156 c36 -17 94
-80 94 -101 0 -10 -42 -13 -185 -13 -133 0 -185 3 -185 12 0 21 51 78 88 98
47 24 141 26 188 4z"/>
</g>
</svg>
