<?xml version="1.0" standalone="no"?>
<!DOCTYPE svg PUBLIC "-//W3C//DTD SVG 20010904//EN"
 "http://www.w3.org/TR/2001/REC-SVG-20010904/DTD/svg10.dtd">
<svg version="1.0" xmlns="http://www.w3.org/2000/svg"
 width="512.000000pt" height="512.000000pt" viewBox="0 0 512.000000 512.000000"
 preserveAspectRatio="xMidYMid meet">

<g transform="translate(0.000000,512.000000) scale(0.100000,-0.100000)"
fill="#000000" stroke="none">
<path d="M853 5105 c-29 -8 -72 -24 -95 -36 -58 -29 -140 -109 -171 -167 -61
-111 -57 38 -57 -2342 0 -2380 -4 -2231 57 -2342 31 -57 113 -138 171 -167
104 -53 26 -51 1802 -51 1776 0 1698 -2 1802 51 58 29 140 110 171 167 61 111
57 -38 57 2342 0 2380 4 2231 -57 2342 -31 57 -113 138 -171 167 -104 53 -25
51 -1807 50 -1389 0 -1658 -3 -1702 -14z m3397 -141 c41 -12 67 -29 111 -73
98 -98 89 136 89 -2331 0 -2467 9 -2233 -89 -2331 -98 -97 68 -89 -1801 -89
-1869 0 -1703 -8 -1801 89 -98 98 -89 -136 -89 2331 0 2467 -9 2233 89 2331
42 42 71 62 107 73 43 13 258 15 1690 15 1471 1 1646 -1 1694 -15z"/>
<path d="M952 4697 l-22 -23 0 -525 0 -526 23 -21 23 -22 1585 0 1586 0 21 23
22 23 0 525 0 526 -23 21 -23 22 -1585 0 -1586 0 -21 -23z m3098 -547 l0 -430
-1490 0 -1490 0 0 430 0 430 1490 0 1490 0 0 -430z"/>
<path d="M1230 3304 c-77 -21 -128 -54 -193 -123 -217 -235 -84 -613 237 -672
268 -50 516 200 467 468 -44 241 -277 390 -511 327z m226 -152 c85 -43 154
-152 154 -242 0 -109 -88 -224 -194 -255 -127 -37 -254 18 -319 140 -16 30
-22 58 -22 115 0 65 4 82 31 130 32 57 97 111 158 130 47 14 146 5 192 -18z"/>
<path d="M2460 3306 c-112 -30 -215 -113 -264 -212 -122 -245 25 -535 297
-585 267 -49 515 195 469 461 -41 241 -275 398 -502 336z m215 -154 c122 -63
178 -188 140 -318 -31 -106 -146 -194 -255 -194 -89 0 -199 69 -241 151 -92
181 53 399 256 386 34 -3 78 -13 100 -25z"/>
<path d="M3686 3309 c-63 -15 -152 -68 -200 -119 -224 -239 -96 -622 227 -681
268 -50 516 196 470 466 -6 36 -21 86 -34 112 -28 59 -107 144 -164 178 -83
48 -204 66 -299 44z m226 -166 c91 -51 146 -155 135 -259 -17 -168 -180 -276
-343 -229 -108 31 -195 147 -194 259 1 44 32 128 60 163 84 103 226 131 342
66z"/>
<path d="M1246 2259 c-65 -15 -138 -58 -192 -111 -163 -160 -163 -416 0 -576
236 -232 627 -107 687 221 51 278 -217 531 -495 466z m175 -145 c101 -30 189
-148 189 -254 0 -109 -88 -224 -194 -255 -100 -29 -194 -6 -265 66 -167 167
-53 450 185 458 17 1 55 -6 85 -15z"/>
<path d="M2466 2259 c-113 -27 -224 -121 -279 -237 -29 -61 -32 -76 -32 -162
0 -86 3 -101 32 -162 44 -94 109 -160 202 -206 71 -35 80 -37 171 -37 91 0
100 2 171 37 256 126 315 442 123 648 -96 102 -253 150 -388 119z m212 -158
c126 -64 186 -234 125 -355 -22 -44 -81 -104 -128 -129 -56 -30 -173 -30 -231
0 -51 27 -100 76 -127 128 -30 57 -30 174 1 231 37 72 102 126 177 145 45 12
141 2 183 -20z"/>
<path d="M3685 2256 c-149 -37 -260 -148 -300 -301 -13 -50 -15 -148 -15 -617
0 -369 4 -575 11 -610 36 -172 191 -310 366 -325 198 -16 378 111 428 303 13
49 15 151 15 629 0 347 -4 587 -11 614 -17 76 -60 150 -120 205 -110 102 -236
136 -374 102z m167 -136 c62 -18 128 -71 162 -130 l31 -55 3 -578 c2 -379 -1
-591 -8 -616 -17 -65 -69 -131 -130 -165 -48 -27 -65 -31 -130 -31 -58 0 -85
6 -116 22 -56 30 -103 78 -128 133 -20 44 -21 61 -24 614 -3 655 -4 644 76
728 71 74 171 103 264 78z"/>
<path d="M1245 1206 c-196 -49 -330 -235 -312 -431 9 -97 41 -168 107 -239
160 -170 403 -181 574 -25 240 219 139 611 -179 694 -69 18 -121 18 -190 1z
m174 -142 c75 -22 153 -100 175 -173 20 -68 20 -94 0 -160 -29 -98 -125 -177
-228 -188 -223 -23 -374 229 -249 415 36 53 75 82 137 104 64 22 98 22 165 2z"/>
<path d="M2465 1206 c-208 -51 -350 -271 -306 -475 46 -215 254 -360 465 -324
226 39 381 259 336 478 -33 162 -160 291 -318 324 -65 14 -112 13 -177 -3z
m176 -142 c40 -12 67 -29 106 -68 132 -132 99 -339 -71 -429 -58 -31 -174 -31
-232 0 -166 88 -202 292 -76 425 34 35 63 55 102 68 68 24 101 24 171 4z"/>
</g>
</svg>
