<?xml version="1.0" standalone="no"?>
<!DOCTYPE svg PUBLIC "-//W3C//DTD SVG 20010904//EN"
 "http://www.w3.org/TR/2001/REC-SVG-20010904/DTD/svg10.dtd">
<svg version="1.0" xmlns="http://www.w3.org/2000/svg"
 width="100.000000pt" height="100.000000pt" viewBox="0 0 100.000000 100.000000"
 preserveAspectRatio="xMidYMid meet">

<g transform="translate(0.000000,100.000000) scale(0.100000,-0.100000)"
fill="#000000" stroke="none">
<path d="M10 985 c-6 -8 -10 -22 -8 -32 3 -15 15 -18 78 -21 l75 -3 73 -337
c41 -185 78 -354 83 -375 l10 -37 277 2 277 3 0 30 0 30 -255 5 -255 5 -6 30
c-4 17 -7 40 -8 53 l-1 22 269 0 c203 0 271 3 278 13 6 6 31 112 57 235 39
179 46 225 36 237 -11 13 -68 15 -384 15 l-372 0 -13 62 c-7 35 -18 66 -24 70
-7 4 -49 8 -93 8 -59 0 -85 -4 -94 -15z m370 -237 c0 -18 3 -50 6 -70 l7 -38
-57 0 c-38 0 -56 4 -56 13 -1 6 -7 38 -14 70 l-14 57 64 0 64 0 0 -32z m180
-38 l0 -70 -55 0 c-51 0 -55 2 -55 24 0 13 -3 44 -6 70 l-7 46 62 0 61 0 0
-70z m174 13 c-8 -84 -8 -83 -64 -83 l-50 0 0 70 0 70 60 0 60 0 -6 -57z m180
0 c-7 -32 -13 -64 -14 -70 0 -9 -18 -13 -56 -13 l-57 0 7 53 c3 28 6 60 6 70
0 14 10 17 64 17 l64 0 -14 -57z m-510 -199 c12 -90 11 -94 -34 -94 -42 0 -43
2 -65 108 l-7 32 50 0 49 0 7 -46z m156 -24 l0 -70 -40 0 c-44 0 -44 0 -54 93
l-6 47 50 0 50 0 0 -70z m154 33 c-14 -109 -11 -103 -54 -103 l-40 0 0 70 0
70 49 0 50 0 -5 -37z m161 5 c-22 -106 -23 -108 -65 -108 -38 0 -40 1 -40 33
0 17 3 49 6 70 7 37 7 37 56 37 l50 0 -7 -32z"/>
<path d="M356 124 c-25 -24 -21 -90 6 -108 30 -21 54 -20 78 4 41 41 14 120
-40 120 -16 0 -36 -7 -44 -16z"/>
<path d="M736 118 c-22 -31 -20 -74 4 -98 24 -24 48 -25 78 -4 27 18 31 84 6
108 -23 24 -70 20 -88 -6z"/>
</g>
</svg>
