<?xml version="1.0" encoding="utf-8"?>
<!-- Svg Vector Icons : http://www.onlinewebfonts.com/icon -->
<!DOCTYPE svg PUBLIC "-//W3C//DTD SVG 1.1//EN" "http://www.w3.org/Graphics/SVG/1.1/DTD/svg11.dtd">
<svg version="1.1" xmlns="http://www.w3.org/2000/svg" xmlns:xlink="http://www.w3.org/1999/xlink" x="0px" y="0px" viewBox="0 0 1000 1000" enable-background="new 0 0 1000 1000" xml:space="preserve">
<metadata> Svg Vector Icons : http://www.onlinewebfonts.com/icon </metadata>
<g><g transform="translate(0.000000,511.000000) scale(0.100000,-0.100000)"><path d="M4885,4856.1c-65.1-28.7-354.2-304.4-1229.2-1181.4L2512.7,2533.6l224-72.8l224-70.8l114.9,113l114.9,114.9l229.8-227.8l229.8-229.8l1541.3-505.5l1541.3-505.5l440.4,436.5l440.4,438.5l963.1-963.1L9537.7,100l-440.4-440.4L8655-780.7l-134-409.7c-72.8-225.9-130.2-417.4-128.3-427c3.8-9.6,325.5,304.4,716.1,696.9c658.7,660.6,714.2,721.8,752.5,825.2c47.9,132.1,51.7,237.4,9.6,379.1c-28.7,101.5-82.4,157-2234.4,2312.9C5853.8,4381.2,5411.6,4814,5335,4850.3C5208.6,4909.7,5011.4,4913.5,4885,4856.1z M5124.4,3883.4c105.3-49.8,917.1-867.4,957.3-963.1c34.5-86.2,36.4-183.8,5.7-291c-28.7-99.6-382.9-469.1-503.6-528.5c-95.7-45.9-248.9-49.8-350.4-9.6c-95.7,40.2-894.2,832.9-943.9,938.2c-44,93.8-47.9,252.7-7.7,348.5c38.3,90,396.3,453.8,495.9,503.6C4877.4,3929.4,5022.9,3931.3,5124.4,3883.4z"/><path d="M2175.8,2328.7c-105.3-24.9-245.1-120.6-308.3-210.6c-36.4-51.7-155.1-392.5-375.3-1074.1C1316.1,494.5,1170.6,33,1170.6,19.6c0-19.1,149.3-24.9,775.4-24.9c427,0,775.4,3.8,775.4,7.6c0,3.8-109.1,44.1-243.2,88.1c-222.1,74.7-252.7,90-335.1,172.3c-68.9,72.8-93.8,114.9-111,197.2c-23,103.4-23,114.9,63.2,386.8c101.5,327.4,151.3,409.7,287.2,478.7c153.2,76.6,208.7,67,796.5-126.4c582.1-193.4,649.1-222.1,710.3-298.7c122.5-155.1,124.5-277.6,9.6-629.9c-47.9-145.5-86.2-266.1-86.2-270c0-3.8,348.5-5.7,773.5-5.7h775.4l135.9,423.1C5626,818,5635.6,839.1,5675.8,825.7C5813.6,783.6,8224.2-7.2,8228-11c3.8-1.9-124.5-411.7-285.3-907.6c-279.6-873.1-291-903.7-333.2-894.2l-44,11.5V-2479c0-373.4-5.7-748.6-11.5-831c-9.6-105.3-5.8-145.5,7.7-132.1c11.5,11.5,250.8,735.2,534.2,1608.3c507.4,1570,513.1,1591.1,513.1,1751.9c0,141.7-5.7,174.2-51.7,250.8c-67,114.9-180,214.4-285.3,254.6c-46,17.2-1388.1,457.6-2981.2,978.4c-1876.4,614.6-2921.8,947.8-2967.7,945.8C2284.9,2345.9,2217.9,2338.3,2175.8,2328.7z"/><path d="M7464.1,1587.7l-147.4-147.4l360-358.1l358.1-356.1l181.9-59.4c289.1-93.8,442.3-218.3,547.6-440.4c26.8-55.5,53.6-147.4,59.4-204.9c7.6-78.5,23-113,67-155.1l55.5-51.7l147.4,147.4l147.4,147.4l-813.7,813.7l-813.7,813.7L7464.1,1587.7z"/><path d="M5702.6,368.1l-67-199.1l250.8-82.3l252.7-82.3l421.2-9.6l421.2-9.6l128.3-61.3c134-63.2,250.8-166.6,327.4-287.2c42.1-65.1,65.1-78.5,222.1-130.2c95.7-30.6,176.1-51.7,180-46c15.3,15.3,132.1,382.9,124.5,390.6c-7.6,7.6-2169.3,718-2184.6,718C5773.4,569.1,5739,479.1,5702.6,368.1z"/><path d="M406.6-275.3c-78.5-40.2-139.8-88.1-183.8-147.4c-130.2-168.5-126.4-90-120.6-2073.6l5.7-1788.3l59.4-105.3c65.1-116.8,201-231.7,314-266.1c51.7-15.3,945.8-21.1,3258.8-21.1h3186l97.7,49.8c114.9,55.5,224,168.5,275.7,283.4c34.5,74.7,36.4,158.9,36.4,1880.2c0,2052.5,11.5,1914.7-160.8,2087c-176.1,176.2,141.7,160.8-3467.5,160.8H525.3L406.6-275.3z M6914.6-1594.5v-957.3H5526.4H4138.3v957.3v957.3h1388.1h1388.1V-1594.5z M2327-1077.5c113-24.9,224-113,277.6-218.3c42.1-82.3,49.8-124.5,55.5-337c13.4-404-49.8-568.7-250.8-662.5c-97.7-45.9-105.3-45.9-700.8-45.9c-394.4,0-626.1,7.6-674,21.1c-95.7,30.6-201,116.8-252.7,214.5c-38.3,74.7-42.1,107.2-42.1,396.3c0,292.9,3.8,321.7,46,407.8c47.9,99.6,135.9,176.2,245.1,216.4C1116.9-1054.5,2202.6-1046.9,2327-1077.5z M1802.4-3624v-210.6H1161H519.6v210.6v210.6H1161h641.4V-3624z M3506.5-3624v-210.6H2865h-641.4v210.6v210.6H2865h641.4V-3624z M5210.5-3624v-210.6h-641.4h-641.4v210.6v210.6h641.4h641.4V-3624z M6914.6-3624v-210.6h-641.4h-641.4v210.6v210.6h641.4h641.4V-3624z"/><path d="M4368.1-1058.3V-1269h1168H6704v210.6v210.6H5536h-1168V-1058.3z"/><path d="M4368.1-2130.6v-210.6h1168H6704v210.6v210.6H5536h-1168V-2130.6z"/><path d="M7557.9-1205.8c-17.2-109.1-13.4-208.7,5.8-185.7c24.9,24.9,80.4,220.2,67,239.3C7605.8-1112,7569.4-1140.7,7557.9-1205.8z"/></g></g>
</svg>