<?xml version="1.0" standalone="no"?>
<!DOCTYPE svg PUBLIC "-//W3C//DTD SVG 20010904//EN"
 "http://www.w3.org/TR/2001/REC-SVG-20010904/DTD/svg10.dtd">
<svg version="1.0" xmlns="http://www.w3.org/2000/svg"
 width="100.000000pt" height="100.000000pt" viewBox="0 0 100.000000 100.000000"
 preserveAspectRatio="xMidYMid meet">

<g transform="translate(0.000000,100.000000) scale(0.100000,-0.100000)"
fill="#000000" stroke="none">
<path d="M430 981 c-122 -40 -197 -148 -188 -271 4 -52 18 -88 101 -256 54
-107 95 -200 92 -205 -4 -5 -21 -9 -39 -9 -50 0 -132 -28 -166 -56 -62 -53
-25 -117 88 -151 79 -25 285 -25 364 0 153 47 156 147 6 192 -65 19 -74 19
-82 -1 -8 -21 -12 -18 59 -39 62 -17 95 -39 95 -61 0 -21 -83 -54 -168 -66
-136 -20 -352 20 -352 65 0 30 60 62 136 72 27 3 59 8 70 10 17 4 25 -2 34
-25 7 -17 15 -30 19 -30 4 0 62 112 131 250 109 219 124 257 128 310 8 104
-49 205 -142 252 -44 22 -145 33 -186 19z m149 -145 c21 -21 26 -36 26 -76 0
-41 -5 -54 -28 -77 -23 -23 -36 -28 -77 -28 -41 0 -54 5 -77 28 -23 23 -28 36
-28 78 0 45 4 54 34 81 30 27 39 30 79 25 30 -3 53 -13 71 -31z"/>
</g>
</svg>
