<?xml version="1.0" standalone="no"?>
<!DOCTYPE svg PUBLIC "-//W3C//DTD SVG 20010904//EN"
 "http://www.w3.org/TR/2001/REC-SVG-20010904/DTD/svg10.dtd">
<svg version="1.0" xmlns="http://www.w3.org/2000/svg"
 width="100.000000pt" height="100.000000pt" viewBox="0 0 100.000000 100.000000"
 preserveAspectRatio="xMidYMid meet">

<g transform="translate(0.000000,100.000000) scale(0.100000,-0.100000)"
fill="#000000" stroke="none">
<path d="M590 852 c0 -37 -34 -50 -63 -25 -17 16 -20 15 -49 -15 -30 -29 -31
-32 -15 -49 25 -29 12 -63 -25 -63 -29 0 -29 -1 -26 -47 3 -43 5 -48 25 -45
33 5 50 -33 27 -59 -17 -19 -16 -21 16 -54 34 -35 34 -35 54 -16 26 25 56 11
56 -24 0 -23 4 -25 50 -25 48 0 50 1 50 29 0 36 31 47 56 20 17 -19 18 -19 51
13 32 31 33 32 14 52 -25 28 -12 69 21 64 21 -3 23 2 26 45 3 44 2 47 -22 47
-38 0 -50 30 -24 58 l22 22 -29 30 c-33 34 -42 36 -65 15 -23 -21 -48 -9 -52
23 -3 25 -7 27 -50 30 -47 3 -48 3 -48 -26z m89 -127 c75 -38 43 -155 -43
-155 -26 0 -40 7 -60 31 -34 40 -33 74 3 110 33 32 58 36 100 14z"/>
<path d="M277 464 c-4 -4 -7 -15 -7 -25 0 -23 -26 -31 -41 -13 -10 13 -16 11
-40 -12 -25 -24 -27 -30 -15 -43 17 -20 10 -41 -15 -41 -16 0 -19 -7 -19 -40
0 -33 3 -40 19 -40 28 0 36 -18 17 -39 -15 -16 -14 -19 9 -41 22 -21 29 -22
46 -12 24 15 39 8 39 -19 0 -16 7 -19 40 -19 33 0 40 3 40 19 0 27 15 34 39
19 18 -11 24 -10 43 10 20 19 21 25 10 43 -15 24 -8 39 19 39 16 0 19 7 19 40
0 33 -3 40 -19 40 -27 0 -34 15 -19 39 10 17 9 24 -12 46 -21 22 -25 23 -39
10 -19 -17 -37 -8 -42 20 -3 14 -13 21 -34 23 -17 2 -34 0 -38 -4z m64 -115
c41 -21 44 -86 5 -111 -24 -16 -75 -8 -90 14 -21 30 -20 50 5 82 22 28 48 33
80 15z"/>
</g>
</svg>
